# xmcd
# 
# Track frame offsets:
#     150
#     11359
#     23173
#     36117
#     46461
#     59085
#     71784
#     85229
#     97459
#     111817
#     126167
#     140003
#     154307
#     167235
# 
# Disc length: 2414
# 
# Revision: 0
# Processed by: cddbd v1.5PL3 Copyright (c) Steve Scherf et al.
# Submitted via: BonkEnc v1.0beta2
# 
DISCID=cd096c0e
DTITLE=Various Artist - Birth of the Blues
DYEAR=1999
DGENRE=Blues
TTITLE0=Robert Johnson- love in vain
TTITLE1=Robert Johnson- hell hound on my trail
TTITLE2=RJ- Rambling on my mind
TTITLE3=RJ- Stop breakin down
TTITLE4=Sonny Boy Williamson- Black gal blues
TTITLE5=SBW- I been dealin with the devil
TTITLE6=SBW- Shotgun blues
TTITLE7=SBW- Groundhog Blues
TTITLE8=Leadbelly- Death letter blues
TTITLE9=Leadbelly- Easy Rider
TTITLE10=Lead belly- Alabama Bound
TTITLE11=Big Bill Broonzy- Horny Frog
TTITLE12=BBB- When I been drinkin
TTITLE13=BBB- worrying you off my mind
EXTD=
EXTT0=
EXTT1=
EXTT2=
EXTT3=
EXTT4=
EXTT5=
EXTT6=
EXTT7=
EXTT8=
EXTT9=
EXTT10=
EXTT11=
EXTT12=
EXTT13=
PLAYORDER=
